<svg width="135" height="51" viewBox="0 0 135 51" fill="none" xmlns="http://www.w3.org/2000/svg">
<path d="M1.35519 14.6579C11.9904 10.6811 22.8302 7.3405 31.4202 0.977538C33.2609 -0.295054 35.5106 0.659389 35.7155 2.4092C36.3291 6.38605 36.5336 10.2038 36.5336 14.0216C46.3504 11.6355 59.6444 13.2262 69.0529 12.5899C89.0962 11.4764 109.139 7.9768 129.183 8.45402C131.024 8.45402 132.455 10.2038 131.433 11.4764C126.115 17.6803 119.366 22.7707 113.025 28.1792C119.775 34.7015 127.751 40.1098 134.296 46.7909C135.728 48.2225 134.909 50.2905 132.455 50.4496C97.8907 52.5175 67.4167 33.5877 34.2838 29.1334C34.8974 33.9056 34.6929 38.6781 34.4884 43.45C34.4884 45.0408 31.8296 45.9952 30.193 44.882C19.1488 36.2917 8.9229 27.3838 0.128052 17.3622C-0.280991 16.4077 0.332581 15.1351 1.35519 14.6579ZM127.137 46.4725C121.411 41.2233 115.275 35.9736 110.775 30.0881C109.548 30.2469 108.117 29.1334 108.935 28.0201C113.639 22.6113 119.365 17.8394 124.478 12.5899C108.526 12.749 92.7773 14.9761 76.8244 16.2486C62.3032 17.5212 46.964 18.1575 32.2383 18.4757C30.3976 18.4757 29.784 16.5668 31.2156 15.7714C31.4198 15.6123 31.6247 15.6123 31.8292 15.4533C31.8292 12.2718 31.6247 9.09031 31.2156 6.06791C23.6479 10.6811 15.0579 13.7035 6.26376 16.8849C13.4221 24.6796 21.3985 31.8379 29.784 38.6781C29.9885 34.701 30.3976 30.7241 30.193 26.7475C30.193 25.7931 31.216 25.3159 32.2383 25.3159C32.6473 24.8386 33.2609 24.5205 34.2835 24.6796C66.5982 27.5429 94.618 46.1546 127.137 46.4725Z" fill="#FFC800"/>
</svg>
